<svg width="17" height="20" viewBox="0 0 17 20" fill="none" xmlns="http://www.w3.org/2000/svg">
<path fill-rule="evenodd" clip-rule="evenodd" d="M9.16442 1.81464C9.16591 1.79328 9.16667 1.77172 9.16667 1.74998C9.16667 1.24372 8.75626 0.833313 8.25 0.833313C7.74374 0.833313 7.33333 1.24372 7.33333 1.74998C7.33333 1.77172 7.33409 1.79328 7.33558 1.81464C4.22488 2.25847 1.83333 4.93327 1.83333 8.16665V14.5833H0.916667C0.410406 14.5833 0 14.9937 0 15.5C0 16.0062 0.410406 16.4166 0.916667 16.4166H5.5C5.5 17.9354 6.73122 19.1666 8.25 19.1666C9.76878 19.1666 11 17.9354 11 16.4166H15.5833C16.0896 16.4166 16.5 16.0062 16.5 15.5C16.5 14.9937 16.0896 14.5833 15.5833 14.5833H14.6667V8.16665C14.6667 4.93327 12.2751 2.25847 9.16442 1.81464ZM12.8333 8.16665V14.5833H3.66667V8.16665C3.66667 5.63534 5.7187 3.58331 8.25 3.58331C10.7813 3.58331 12.8333 5.63534 12.8333 8.16665ZM8.25 17.3333C7.74374 17.3333 7.33333 16.9229 7.33333 16.4166H9.16667C9.16667 16.9229 8.75626 17.3333 8.25 17.3333Z" fill="white"/>
</svg>
