<svg width="17" height="16" viewBox="0 0 17 16" fill="none" xmlns="http://www.w3.org/2000/svg"><path fill-rule="evenodd" clip-rule="evenodd" d="M6.01304 1.46631H14.133C14.8774 1.46631 15.4864 2.05431 15.4864 2.77297V10.613C15.4864 11.3316 14.8774 11.9196 14.133 11.9196H6.01304C5.2687 11.9196 4.6597 11.3316 4.6597 10.613V2.77297C4.6597 2.05431 5.2687 1.46631 6.01304 1.46631ZM1.953 4.07975H3.30634V13.2264H12.7797V14.5331H3.30634C2.562 14.5331 1.953 13.9451 1.953 13.2264V4.07975ZM14.133 10.6131H6.01301V2.77306H14.133V10.6131ZM12.7798 6.0397H7.3665V7.34637H12.7798V6.0397ZM7.3665 7.99971H10.0732V9.30638H7.3665V7.99971ZM12.7798 4.07975H7.3665V5.38642H12.7798V4.07975Z" fill="white"/></svg>
