<svg width="18" height="18" viewBox="0 0 18 18" fill="none" xmlns="http://www.w3.org/2000/svg">
<path fill-rule="evenodd" clip-rule="evenodd" d="M14.3271 0.682243H2.72897C1.5986 0.682243 0.682243 1.5986 0.682243 2.72897V14.3271C0.682243 15.4575 1.5986 16.3738 2.72897 16.3738H14.3271C15.4575 16.3738 16.3738 15.4575 16.3738 14.3271V2.72897C16.3738 1.5986 15.4575 0.682243 14.3271 0.682243ZM2.72897 0C1.2218 0 0 1.2218 0 2.72897V14.3271C0 15.8343 1.2218 17.0561 2.72897 17.0561H14.3271C15.8343 17.0561 17.0561 15.8343 17.0561 14.3271V2.72897C17.0561 1.2218 15.8343 0 14.3271 0H2.72897Z" fill="white"/>
<path fill-rule="evenodd" clip-rule="evenodd" d="M11.2628 4.17876C11.142 4.17876 11.0163 4.22709 10.9245 4.31891L10.0401 5.20327L11.8523 7.01547L12.7367 6.13112C12.9252 5.94265 12.9252 5.6382 12.7367 5.44973L11.6059 4.31891C11.5092 4.22226 11.3884 4.17876 11.2628 4.17876ZM9.52303 7.08797L9.96762 7.53257L5.58933 11.9109H5.14474V11.4663L9.52303 7.08797ZM4.17822 11.0652L9.52303 5.72036L11.3352 7.53257L5.99043 12.8774H4.17822V11.0652Z" fill="white"/>
</svg>
