<svg width="18" height="18" viewBox="0 0 18 18" fill="none" xmlns="http://www.w3.org/2000/svg">
<path fill-rule="evenodd" clip-rule="evenodd" d="M14.3271 0.682243H2.72897C1.5986 0.682243 0.682243 1.5986 0.682243 2.72897V14.3271C0.682243 15.4575 1.5986 16.3738 2.72897 16.3738H14.3271C15.4575 16.3738 16.3738 15.4575 16.3738 14.3271V2.72897C16.3738 1.5986 15.4575 0.682243 14.3271 0.682243ZM2.72897 0C1.2218 0 0 1.2218 0 2.72897V14.3271C0 15.8343 1.2218 17.0561 2.72897 17.0561H14.3271C15.8343 17.0561 17.0561 15.8343 17.0561 14.3271V2.72897C17.0561 1.2218 15.8343 0 14.3271 0H2.72897Z" fill="white"/>
<path d="M7.37249 7.01481C6.86627 7.14853 6.46511 7.40642 6.17857 7.78847C5.88247 8.16098 5.7392 8.60034 5.7392 9.11612C5.7392 9.44086 5.81561 9.71786 5.98754 9.92799C6.15947 10.1381 6.3696 10.2527 6.63704 10.2527C6.86627 10.2527 7.0573 10.1763 7.21012 10.0426C7.36294 9.89933 7.43935 9.71786 7.43935 9.49817C7.43935 9.27849 7.36294 9.09701 7.22922 8.95374C7.0764 8.81047 6.90447 8.74361 6.7039 8.74361C6.58928 8.74361 6.51287 8.75316 6.46511 8.78182C6.45556 8.55258 6.54152 8.32335 6.71345 8.11322C6.88537 7.88399 7.10505 7.73116 7.37249 7.6452V7.01481ZM5.0515 7.01481C4.54528 7.14853 4.14412 7.40642 3.85758 7.78847C3.56148 8.16098 3.41821 8.60034 3.41821 9.11612C3.41821 9.44086 3.50418 9.71786 3.6761 9.92799C3.83847 10.1381 4.04861 10.2527 4.31604 10.2527C4.54528 10.2527 4.74586 10.1763 4.89868 10.0426C5.04195 9.89933 5.11836 9.71786 5.11836 9.49817C5.11836 9.27849 5.04195 9.09701 4.89868 8.95374C4.75541 8.81047 4.58348 8.74361 4.3829 8.74361C4.26829 8.74361 4.19188 8.75316 4.14412 8.78182C4.13457 8.55258 4.22053 8.32335 4.40201 8.11322C4.57393 7.88399 4.78406 7.73116 5.0515 7.6452V7.01481Z" fill="white"/>
<path d="M12.7087 7.01481C12.4699 7.01481 12.2789 7.08167 12.1356 7.22494C11.9828 7.35866 11.9064 7.54014 11.9064 7.76937C11.9064 7.9795 11.9733 8.16098 12.1165 8.30425C12.2598 8.44752 12.4317 8.52393 12.6419 8.52393C12.7469 8.52393 12.8233 8.50483 12.8807 8.48572C12.8807 8.71496 12.8042 8.93464 12.6323 9.16387C12.4508 9.374 12.2312 9.52683 11.9733 9.62234V10.2527C12.4699 10.1095 12.8711 9.85157 13.1672 9.47907C13.4537 9.09701 13.6066 8.65765 13.6066 8.15142C13.6066 7.81713 13.5206 7.54014 13.3582 7.33C13.1863 7.11987 12.9666 7.01481 12.7087 7.01481ZM10.3877 7.01481C10.149 7.01481 9.95793 7.08167 9.8051 7.22494C9.65228 7.35866 9.58542 7.54014 9.58542 7.76937C9.58542 7.9795 9.65228 8.16098 9.8051 8.30425C9.93882 8.44752 10.1107 8.52393 10.3209 8.52393C10.4259 8.52393 10.5024 8.50483 10.5597 8.48572C10.5597 8.71496 10.4737 8.93464 10.3018 9.16387C10.1299 9.374 9.91017 9.52683 9.65228 9.62234V10.2527C10.149 10.1095 10.5501 9.85157 10.8462 9.47907C11.1328 9.09701 11.2856 8.65765 11.2856 8.15142C11.2856 7.81713 11.1996 7.54014 11.0277 7.33C10.8558 7.11987 10.6456 7.01481 10.3877 7.01481Z" fill="white"/>
</svg>
