<svg width="18" height="18" viewBox="0 0 18 18" fill="none" xmlns="http://www.w3.org/2000/svg">
<path fill-rule="evenodd" clip-rule="evenodd" d="M14.3271 0.682243H2.72897C1.5986 0.682243 0.682243 1.5986 0.682243 2.72897V14.3271C0.682243 15.4575 1.5986 16.3738 2.72897 16.3738H14.3271C15.4575 16.3738 16.3738 15.4575 16.3738 14.3271V2.72897C16.3738 1.5986 15.4575 0.682243 14.3271 0.682243ZM2.72897 0C1.2218 0 0 1.2218 0 2.72897V14.3271C0 15.8343 1.2218 17.0561 2.72897 17.0561H14.3271C15.8343 17.0561 17.0561 15.8343 17.0561 14.3271V2.72897C17.0561 1.2218 15.8343 0 14.3271 0H2.72897Z" fill="white"/>
<path d="M5.30119 5.75259L3.06616 11.5981H4.08953L4.62168 10.1326H7.06956L7.60171 11.5981H8.62508L6.39005 5.75259H5.30119ZM4.90822 9.34665L5.83334 6.78415H5.86609L6.78302 9.34665H4.90822Z" fill="white"/>
<path d="M11.7201 7.2508C11.1798 7.2508 10.754 7.34086 10.4429 7.53734C10.0745 7.7502 9.84529 8.09405 9.75523 8.56071L10.6804 8.63439C10.7295 8.41334 10.8523 8.2496 11.0324 8.14317C11.1879 8.04493 11.3926 8.004 11.6546 8.004C12.2604 8.004 12.5633 8.27416 12.5633 8.83087V8.99461L11.6382 9.01917C11.016 9.03555 10.533 9.16654 10.1891 9.41215C9.81254 9.66594 9.63243 10.0344 9.63243 10.5092C9.63243 10.8612 9.76342 11.1478 10.0254 11.377C10.2792 11.5981 10.623 11.7127 11.0651 11.7127C11.4336 11.7127 11.7528 11.6472 12.023 11.5244C12.2604 11.4098 12.4651 11.2542 12.6288 11.0413V11.5981H13.4967V8.89637C13.4967 8.38059 13.3657 7.98762 13.1037 7.71745C12.809 7.40635 12.3423 7.2508 11.7201 7.2508ZM12.5633 9.66594V9.8788C12.5633 10.2063 12.4324 10.4764 12.1867 10.6893C11.9411 10.894 11.6382 11.0004 11.278 11.0004C11.0733 11.0004 10.9096 10.9431 10.7786 10.8449C10.6476 10.7466 10.5903 10.6238 10.5903 10.4764C10.5903 9.96886 10.9587 9.70687 11.7037 9.6905L12.5633 9.66594Z" fill="white"/>
</svg>
