<svg width="17" height="13" viewBox="0 0 17 13" fill="none" xmlns="http://www.w3.org/2000/svg">
<g opacity="0.8">
<path fill-rule="evenodd" clip-rule="evenodd" d="M8.7655 2.4375C5.46472 2.4375 2.64585 4.12208 1.50378 6.5C2.64585 8.87792 5.46472 10.5625 8.7655 10.5625C12.0663 10.5625 14.8851 8.87792 16.0272 6.5C14.8851 4.12208 12.0663 2.4375 8.7655 2.4375ZM8.7655 9.20836C6.94347 9.20836 5.46472 7.99502 5.46472 6.50002C5.46472 5.00502 6.94347 3.79169 8.7655 3.79169C10.5875 3.79169 12.0663 5.00502 12.0663 6.50002C12.0663 7.99502 10.5875 9.20836 8.7655 9.20836ZM6.78512 6.5C6.78512 5.60083 7.66973 4.875 8.76559 4.875C9.86145 4.875 10.7461 5.60083 10.7461 6.5C10.7461 7.39917 9.86145 8.125 8.76559 8.125C7.66973 8.125 6.78512 7.39917 6.78512 6.5Z" fill="black" fill-opacity="0.54"/>
</g>
</svg>
